<?xml version="1.0" encoding="UTF-8" standalone="no"?>
<!DOCTYPE svg PUBLIC "-//W3C//DTD SVG 1.1//EN" "http://www.w3.org/Graphics/SVG/1.1/DTD/svg11.dtd">
<svg width="100%" height="100%" viewBox="0 0 171 71" version="1.1" xmlns="http://www.w3.org/2000/svg" xmlns:xlink="http://www.w3.org/1999/xlink" xml:space="preserve" xmlns:serif="http://www.serif.com/" style="fill-rule:evenodd;clip-rule:evenodd;stroke-linejoin:round;stroke-miterlimit:2;">
    <path d="M45.31,53.59L45.38,53.59C47.17,52.267 48.731,50.659 50,48.83C51.324,46.938 52.366,44.863 53.09,42.67C53.868,40.336 54.257,37.89 54.24,35.43C54.264,32.348 53.686,29.291 52.54,26.43C51.456,23.731 49.853,21.271 47.82,19.19C45.784,17.123 43.347,15.494 40.66,14.4C37.818,13.248 34.777,12.667 31.71,12.69C28.627,12.667 25.57,13.248 22.71,14.4C20.024,15.478 17.584,17.091 15.54,19.14C13.525,21.215 11.935,23.664 10.86,26.35C9.708,29.237 9.131,32.322 9.16,35.43C9.136,38.613 9.762,41.767 11,44.7C12.127,47.384 13.776,49.818 15.85,51.86C17.91,53.858 20.338,55.437 23,56.51C25.755,57.62 28.7,58.184 31.67,58.17L56.57,58.17L56.57,53.59L45.31,53.59ZM31.71,53.59C29.228,53.62 26.766,53.137 24.48,52.17C22.372,51.258 20.47,49.928 18.89,48.26C17.319,46.581 16.074,44.625 15.22,42.49C14.336,40.263 13.887,37.886 13.9,35.49C13.889,33.074 14.337,30.678 15.22,28.43C16.89,24.129 20.232,20.681 24.48,18.88C26.764,17.905 29.227,17.418 31.71,17.45C34.19,17.419 36.649,17.906 38.93,18.88C41.034,19.787 42.938,21.102 44.53,22.75C46.104,24.42 47.347,26.375 48.19,28.51C49.925,32.909 49.95,37.803 48.26,42.22C47.445,44.359 46.226,46.322 44.67,48C43.063,49.71 41.137,51.089 39,52.06C36.712,53.099 34.223,53.621 31.71,53.59Z" style="fill:rgb(0,128,128);fill-rule:nonzero;"/>
    <path d="M75.85,35.18C73.57,34.37 72.33,33.67 72.33,32.31C72.33,31.53 72.98,30.05 75.43,30.05C76.644,30.105 77.824,30.466 78.86,31.1C78.972,31.169 79.102,31.206 79.233,31.206C79.495,31.206 79.737,31.061 79.86,30.83L80.09,30.41C80.295,30.074 80.197,29.629 79.87,29.41C78.536,28.567 76.988,28.127 75.41,28.14C71.58,28.14 70.16,30.72 70.16,32.35C70.16,35.01 72.5,36.2 75.03,37.09C77.56,37.98 79.2,38.76 79.2,40.36C79.2,41.79 77.7,42.88 75.72,42.88C74.263,42.851 72.857,42.341 71.72,41.43C71.559,41.279 71.338,41.209 71.12,41.24C70.95,41.264 70.799,41.363 70.71,41.51L70.32,42.13C70.169,42.415 70.261,42.772 70.53,42.95C71.992,44.128 73.823,44.755 75.7,44.72C78.83,44.72 81.37,42.72 81.37,40.24C81.41,37.26 78.71,36.25 75.85,35.18Z" style="fill:rgb(0,128,128);fill-rule:nonzero;"/>
    <path d="M95.81,41.85C95.711,41.64 95.499,41.505 95.267,41.505C95.134,41.505 95.005,41.549 94.9,41.63C93.86,42.214 92.701,42.556 91.51,42.63C89.89,42.63 89.72,41.84 89.72,40.03L89.72,30.43L94.86,30.43C94.874,30.431 94.888,30.431 94.901,30.431C95.269,30.431 95.571,30.129 95.571,29.761C95.571,29.748 95.571,29.734 95.57,29.72L95.57,29.22C95.57,29.213 95.57,29.206 95.57,29.2C95.57,28.821 95.259,28.51 94.88,28.51C94.874,28.51 94.867,28.51 94.86,28.51L89.72,28.51L89.72,24.51C89.715,24.119 89.391,23.8 89,23.8L88.36,23.8C88.353,23.8 88.346,23.8 88.34,23.8C87.961,23.8 87.65,24.111 87.65,24.49C87.65,24.496 87.65,24.503 87.65,24.51L87.65,28.51L86.05,28.51C85.63,28.51 85.38,28.73 85.38,29.1L85.38,29.72C85.375,29.751 85.373,29.782 85.373,29.813C85.373,30.153 85.653,30.433 85.993,30.433C86.012,30.433 86.031,30.432 86.05,30.43L87.65,30.43L87.65,40.14C87.65,42.64 87.92,44.7 91.32,44.7C92.962,44.708 94.565,44.197 95.9,43.24C96.091,43.124 96.207,42.916 96.207,42.693C96.207,42.555 96.163,42.421 96.08,42.31L95.81,41.85Z" style="fill:rgb(0,128,128);fill-rule:nonzero;"/>
    <path d="M113.72,28.52L113,28.52C112.986,28.519 112.972,28.519 112.959,28.519C112.591,28.519 112.289,28.821 112.289,29.189C112.289,29.202 112.289,29.216 112.29,29.23L112.29,40.13C111.155,41.691 109.35,42.632 107.42,42.67C104.57,42.67 103.06,40.89 103.06,37.5L103.06,29.23C103.055,28.839 102.731,28.52 102.34,28.52L101.65,28.52C101.263,28.525 100.945,28.843 100.94,29.23L100.94,37.5C100.94,42.22 103.14,44.71 107.31,44.71C109.229,44.72 111.078,43.981 112.46,42.65L112.56,43.65C112.576,44.006 112.874,44.29 113.23,44.29L113.7,44.29C114.085,44.28 114.4,43.965 114.41,43.58L114.41,29.23C114.405,28.85 114.1,28.536 113.72,28.52Z" style="fill:rgb(0,128,128);fill-rule:nonzero;"/>
    <path d="M134,17L133.31,17C133.307,17 133.303,17 133.3,17C132.916,17 132.6,17.316 132.6,17.7C132.6,17.703 132.6,17.707 132.6,17.71L132.6,29.46C131.256,28.584 129.684,28.122 128.08,28.13C123.64,28.13 120.29,31.7 120.29,36.42C120.29,41.14 123.51,44.71 127.62,44.71C129.518,44.702 131.347,43.989 132.75,42.71L132.83,43.61C132.834,43.991 133.149,44.302 133.53,44.302C133.547,44.302 133.563,44.301 133.58,44.3L134,44.3C134.385,44.29 134.7,43.975 134.71,43.59L134.71,17.68C134.689,17.304 134.377,17.005 134,17ZM132.6,40.2C131.506,41.813 129.679,42.781 127.73,42.78C124.73,42.78 122.4,40.06 122.4,36.45C122.4,32.84 124.85,30.24 128.23,30.24C129.812,30.246 131.348,30.774 132.6,31.74L132.6,40.2Z" style="fill:rgb(0,128,128);fill-rule:nonzero;"/>
    <path d="M143,28.52L142.3,28.52C141.913,28.525 141.595,28.843 141.59,29.23L141.59,43.62C141.589,43.637 141.588,43.653 141.588,43.67C141.588,44.025 141.875,44.32 142.23,44.33L143,44.33C143.017,44.331 143.035,44.332 143.052,44.332C143.414,44.332 143.712,44.034 143.712,43.672C143.712,43.655 143.711,43.637 143.71,43.62L143.71,29.23C143.705,28.843 143.387,28.525 143,28.52Z" style="fill:rgb(0,128,128);fill-rule:nonzero;"/>
    <path d="M142.69,18.36C141.853,18.371 141.17,19.063 141.17,19.9C141.17,19.907 141.17,19.913 141.17,19.92C141.29,20.652 141.929,21.194 142.67,21.194C143.411,21.194 144.05,20.652 144.17,19.92C144.181,19.09 143.52,18.392 142.69,18.36Z" style="fill:rgb(0,128,128);fill-rule:nonzero;"/>
    <path d="M157.51,28.13C153.068,28.217 149.482,31.938 149.56,36.38C149.557,36.473 149.555,36.567 149.555,36.661C149.555,41.041 153.13,44.658 157.51,44.71C161.904,44.494 165.403,40.82 165.403,36.42C165.403,32.02 161.904,28.346 157.51,28.13ZM157.51,42.71C154.265,42.645 151.631,39.957 151.631,36.711C151.631,36.601 151.634,36.49 151.64,36.38C151.63,36.241 151.625,36.101 151.625,35.961C151.625,32.746 154.27,30.101 157.485,30.101C160.7,30.101 163.345,32.746 163.345,35.961C163.345,36.101 163.34,36.241 163.33,36.38C163.336,36.491 163.339,36.602 163.339,36.712C163.339,39.939 160.736,42.618 157.51,42.71Z" style="fill:rgb(0,128,128);fill-rule:nonzero;"/>
    <path d="M56.58,19.46L56.11,18.69C53.23,13.97 49.015,10.208 44,7.88L43.17,7.5L42.41,9.14L43.23,9.53C47.909,11.706 51.839,15.221 54.52,19.63L54.99,20.41L56.58,19.46Z" style="fill:rgb(0,128,128);fill-rule:nonzero;"/>
    <path d="M18.76,61.72L17.94,61.34C13.26,59.161 9.331,55.642 6.65,51.23L6.18,50.46L4.63,51.41L5.1,52.18C7.964,56.901 12.165,60.667 17.17,63L18,63.39L18.76,61.72Z" style="fill:rgb(0,128,128);fill-rule:nonzero;"/>
</svg>
